<?xml version="1.0" encoding="utf-8"?>
<!-- Generator: Adobe Illustrator 19.1.0, SVG Export Plug-In . SVG Version: 6.00 Build 0)  -->
<!DOCTYPE svg PUBLIC "-//W3C//DTD SVG 1.1//EN" "http://www.w3.org/Graphics/SVG/1.1/DTD/svg11.dtd">
<svg version="1.1" id="Layer_1" xmlns="http://www.w3.org/2000/svg" xmlns:xlink="http://www.w3.org/1999/xlink" x="0px" y="0px"
	 viewBox="0 0 130 130" style="enable-background:new 0 0 130 130;" xml:space="preserve">
<style type="text/css">
	.st0{fill:#204056;}
	.st1{fill:#FFFFFF;}
</style>
<circle class="st0" cx="65" cy="65" r="65"/>
<g id="XMLID_594_">
	<g id="XMLID_9_">
		<path class="st1" d="M75.4,45.5c-3,0-5.5-2.5-5.5-5.5s2.5-5.5,5.5-5.5s5.5,2.5,5.5,5.5S78.4,45.5,75.4,45.5z M75.4,35.5
			c-2.5,0-4.5,2-4.5,4.5s2,4.5,4.5,4.5s4.5-2,4.5-4.5S77.9,35.5,75.4,35.5z"/>
	</g>
	<g id="XMLID_8_">
		<path class="st1" d="M75.4,83c-3,0-5.5-2.5-5.5-5.5s2.5-5.5,5.5-5.5s5.5,2.5,5.5,5.5S78.4,83,75.4,83z M75.4,73
			c-2.5,0-4.5,2-4.5,4.5s2,4.5,4.5,4.5s4.5-2,4.5-4.5S77.9,73,75.4,73z"/>
	</g>
	<g id="XMLID_7_">
		<path class="st1" d="M54.6,95.5c-3,0-5.5-2.5-5.5-5.5s2.5-5.5,5.5-5.5s5.5,2.5,5.5,5.5S57.6,95.5,54.6,95.5z M54.6,85.5
			c-2.5,0-4.5,2-4.5,4.5s2,4.5,4.5,4.5s4.5-2,4.5-4.5S57.1,85.5,54.6,85.5z"/>
	</g>
	<g id="XMLID_6_">
		<path class="st1" d="M54.6,58c-3,0-5.5-2.5-5.5-5.5s2.5-5.5,5.5-5.5s5.5,2.5,5.5,5.5S57.6,58,54.6,58z M54.6,48
			c-2.5,0-4.5,2-4.5,4.5s2,4.5,4.5,4.5s4.5-2,4.5-4.5S57.1,48,54.6,48z"/>
	</g>
	<g id="XMLID_5_">
		<path class="st1" d="M96.2,70.5c-3,0-5.5-2.5-5.5-5.5s2.5-5.5,5.5-5.5s5.5,2.5,5.5,5.5S99.3,70.5,96.2,70.5z M96.2,60.5
			c-2.5,0-4.5,2-4.5,4.5s2,4.5,4.5,4.5s4.5-2,4.5-4.5S98.7,60.5,96.2,60.5z"/>
	</g>
	<g id="XMLID_4_">
		<path class="st1" d="M33.8,70.5c-3,0-5.5-2.5-5.5-5.5s2.5-5.5,5.5-5.5s5.5,2.5,5.5,5.5S36.8,70.5,33.8,70.5z M33.8,60.5
			c-2.5,0-4.5,2-4.5,4.5s2,4.5,4.5,4.5s4.5-2,4.5-4.5S36.2,60.5,33.8,60.5z"/>
	</g>
	<g id="XMLID_3_">
		<path class="st1" d="M91.4,63.4c-2.5-2.4-4.3-6.6-6-10.7c-1.7-4-3.4-8.1-5.7-10.3l0.7-0.7c2.5,2.4,4.3,6.6,6,10.7
			c1.7,4,3.4,8.1,5.8,10.4L91.4,63.4z"/>
	</g>
	<g id="XMLID_2_">
		<path class="st1" d="M59,87.4l-0.8-0.5c2.7-4.3,4.6-13.3,6.4-21.9c1.8-8.7,3.7-17.7,6.5-22.2l0.9,0.5c-2.7,4.4-4.5,13.3-6.3,21.9
			C63.7,73.8,61.8,82.9,59,87.4z"/>
	</g>
	<g id="XMLID_1_">
		<path class="st1" d="M49.5,88.2c-2.4-2.4-4.2-6.6-5.8-10.6c-1.7-4-3.4-8.1-5.8-10.4l0.7-0.7c2.5,2.4,4.3,6.6,6,10.7
			c1.6,3.9,3.3,7.9,5.6,10.2L49.5,88.2z"/>
	</g>
</g>
</svg>
